<svg width="22" height="23" viewBox="0 0 22 23" fill="none" xmlns="http://www.w3.org/2000/svg">
<path opacity="0.4" fill-rule="evenodd" clip-rule="evenodd" d="M11.0568 1.69352C7.54687 1.67934 4.28557 3.50048 2.4605 6.49379C0.635434 9.4871 0.512919 13.2158 2.13757 16.3221L2.33789 16.7125C2.50209 17.0198 2.53644 17.3799 2.43329 17.7125C2.14742 18.4718 1.90849 19.2479 1.71784 20.0364C1.71784 20.4364 1.83231 20.6649 2.26158 20.6554C3.0219 20.4875 3.77068 20.2712 4.50332 20.0078C4.81886 19.9209 5.15437 19.941 5.45725 20.0649C5.73389 20.1983 6.2967 20.5411 6.31578 20.5411C9.99154 22.4739 14.4808 21.9407 17.5998 19.2009C20.7187 16.461 21.8199 12.0834 20.3676 8.19748C18.9153 4.31153 15.2111 1.72397 11.0568 1.69352V1.69352Z" stroke="#11142D" stroke-width="1.5" stroke-linecap="round" stroke-linejoin="round"/>
<ellipse opacity="0.4" cx="6.28702" cy="11.6935" rx="0.476965" ry="0.47619" stroke="#11142D" stroke-width="1.5" stroke-linecap="round" stroke-linejoin="round"/>
<ellipse opacity="0.4" cx="11.057" cy="11.6935" rx="0.476965" ry="0.47619" stroke="#11142D" stroke-width="1.5" stroke-linecap="round" stroke-linejoin="round"/>
<ellipse opacity="0.4" cx="15.8266" cy="11.6935" rx="0.476965" ry="0.47619" stroke="#11142D" stroke-width="1.5" stroke-linecap="round" stroke-linejoin="round"/>
</svg>
