<svg width="13" height="16" viewBox="0 0 13 16" fill="none" xmlns="http://www.w3.org/2000/svg">
<path d="M5.7 6.14525C5.66356 6.21915 5.6097 6.28309 5.54307 6.33156C5.47644 6.38003 5.39903 6.41158 5.3175 6.4235L4.227 6.5825L5.016 7.35125C5.07492 7.40886 5.119 7.47989 5.14447 7.55826C5.16994 7.63663 5.17604 7.72001 5.16225 7.80125L4.9755 8.88725L5.9505 8.37425C6.02357 8.33576 6.10491 8.31564 6.1875 8.31564C6.27009 8.31564 6.35143 8.33576 6.4245 8.37425L7.3995 8.88725L7.21275 7.80125C7.19883 7.72001 7.20487 7.6366 7.23035 7.5582C7.25582 7.47981 7.29998 7.40879 7.359 7.35125L8.148 6.5825L7.05825 6.4235C6.97679 6.41166 6.89943 6.38022 6.83281 6.33188C6.76618 6.28355 6.71229 6.21976 6.67575 6.146L6.1875 5.1575L5.7 6.14525V6.14525ZM0 2.375C0 1.87772 0.197544 1.40081 0.549175 1.04917C0.900806 0.697544 1.37772 0.5 1.875 0.5H10.5C10.7462 0.5 10.99 0.548498 11.2175 0.642726C11.445 0.736953 11.6517 0.875065 11.8258 1.04917C11.9999 1.22328 12.138 1.42998 12.2323 1.65747C12.3265 1.88495 12.375 2.12877 12.375 2.375V13.0625C12.375 13.2117 12.3157 13.3548 12.2102 13.4602C12.1048 13.5657 11.9617 13.625 11.8125 13.625H1.125C1.125 13.8239 1.20402 14.0147 1.34467 14.1553C1.48532 14.296 1.67609 14.375 1.875 14.375H11.8125C11.9617 14.375 12.1048 14.4343 12.2102 14.5398C12.3157 14.6452 12.375 14.7883 12.375 14.9375C12.375 15.0867 12.3157 15.2298 12.2102 15.3352C12.1048 15.4407 11.9617 15.5 11.8125 15.5H1.875C1.37772 15.5 0.900806 15.3025 0.549175 14.9508C0.197544 14.5992 0 14.1223 0 13.625V2.375ZM4.9065 5.456L3.0615 5.72375C2.96744 5.73719 2.87903 5.77672 2.8063 5.83785C2.73356 5.89897 2.6794 5.97926 2.64997 6.0696C2.62053 6.15993 2.61699 6.25671 2.63976 6.34896C2.66252 6.4412 2.71067 6.52523 2.77875 6.5915L4.11375 7.89275L3.79875 9.73025C3.78247 9.82387 3.79275 9.92017 3.82842 10.0082C3.86408 10.0963 3.92371 10.1726 4.00055 10.2285C4.07738 10.2844 4.16834 10.3177 4.26311 10.3245C4.35789 10.3314 4.45268 10.3115 4.53675 10.2672L6.1875 9.3995L7.8375 10.2672C7.92153 10.3117 8.01633 10.3317 8.11114 10.325C8.20596 10.3182 8.29699 10.2851 8.37391 10.2292C8.45084 10.1734 8.51057 10.0971 8.54633 10.0091C8.5821 9.92099 8.59246 9.82466 8.57625 9.731L8.26125 7.8935L9.59625 6.5915C9.66432 6.52527 9.71248 6.44131 9.73528 6.34912C9.75808 6.25693 9.75461 6.1602 9.72525 6.06988C9.6959 5.97956 9.64184 5.89927 9.5692 5.83809C9.49656 5.77692 9.40825 5.73731 9.31425 5.72375L7.46925 5.456L6.64425 3.7835C6.60234 3.69821 6.53737 3.62637 6.4567 3.57613C6.37604 3.52589 6.28291 3.49926 6.18787 3.49926C6.09284 3.49926 5.99971 3.52589 5.91905 3.57613C5.83838 3.62637 5.77341 3.69821 5.7315 3.7835L4.9065 5.456V5.456Z" fill="url(#paint0_linear_810_2261)"/>
<defs>
<linearGradient id="paint0_linear_810_2261" x1="11.0286" y1="7.91786" x2="1.94792" y2="7.91786" gradientUnits="userSpaceOnUse">
<stop stop-color="#F8C35D"/>
<stop offset="0.914476" stop-color="#9D5FE9"/>
</linearGradient>
</defs>
</svg>
