<svg width="20" height="21" viewBox="0 0 20 21" fill="none" xmlns="http://www.w3.org/2000/svg">
<path opacity="0.4" fill-rule="evenodd" clip-rule="evenodd" d="M18.8064 6.31693L18.184 5.23684C17.6574 4.32291 16.4905 4.00763 15.5753 4.53203V4.53203C15.1397 4.78866 14.6198 4.86147 14.1305 4.7344C13.6411 4.60733 13.2224 4.29083 12.9666 3.85469C12.8021 3.57746 12.7137 3.26171 12.7103 2.93935V2.93935C12.7251 2.42254 12.5302 1.92172 12.1698 1.55098C11.8094 1.18025 11.3143 0.971177 10.7973 0.97139H9.54326C9.03672 0.971384 8.55107 1.17323 8.19376 1.53226C7.83644 1.89129 7.63693 2.37791 7.63937 2.88443V2.88443C7.62435 3.93024 6.77224 4.77012 5.72632 4.77002C5.40397 4.76667 5.08821 4.67826 4.81099 4.51372V4.51372C3.89582 3.98933 2.72887 4.30461 2.20229 5.21853L1.5341 6.31693C1.00817 7.22971 1.31916 8.39592 2.22975 8.92562V8.92562C2.82166 9.26735 3.18629 9.8989 3.18629 10.5824C3.18629 11.2658 2.82166 11.8974 2.22975 12.2391V12.2391C1.32031 12.7653 1.00898 13.9286 1.5341 14.8387V14.8387L2.16568 15.9279C2.4124 16.3731 2.82636 16.7016 3.31595 16.8408C3.80554 16.9799 4.3304 16.9182 4.77438 16.6693V16.6693C5.21084 16.4147 5.73094 16.3449 6.2191 16.4755C6.70725 16.6061 7.12299 16.9264 7.37392 17.365C7.53845 17.6422 7.62686 17.958 7.63021 18.2803V18.2803C7.63021 19.3369 8.48671 20.1934 9.54326 20.1934H10.7973C11.8502 20.1934 12.7053 19.3424 12.7103 18.2895V18.2895C12.7079 17.7814 12.9086 17.2933 13.2679 16.934C13.6272 16.5747 14.1152 16.374 14.6233 16.3764C14.9449 16.385 15.2594 16.4731 15.5387 16.6327V16.6327C16.4515 17.1587 17.6177 16.8477 18.1474 15.9371V15.9371L18.8064 14.8387C19.0615 14.4008 19.1315 13.8793 19.001 13.3897C18.8704 12.9001 18.55 12.4827 18.1108 12.23V12.23C17.6715 11.9773 17.3511 11.5599 17.2206 11.0703C17.09 10.5806 17.16 10.0591 17.4151 9.62128C17.581 9.33165 17.8211 9.09151 18.1108 8.92562V8.92562C19.0159 8.39621 19.3262 7.23681 18.8064 6.32608V6.32608V6.31693Z" stroke="#11142D" stroke-width="1.5" stroke-linecap="round" stroke-linejoin="round"/>
<circle opacity="0.4" cx="10.1747" cy="10.5824" r="2.63616" stroke="#11142D" stroke-width="1.5" stroke-linecap="round" stroke-linejoin="round"/>
</svg>
