<svg width="22" height="23" viewBox="0 0 22 23" fill="#ffffff" xmlns="http://www.w3.org/2000/svg">
<path d="M22 11.3757C22 5.30922 17.072 0.386719 11 0.386719C4.928 0.386719 0 5.30922 0 11.3757C0 14.717 1.518 17.7282 3.894 19.7495C3.916 19.7715 3.938 19.7715 3.938 19.7935C4.136 19.9475 4.334 20.1015 4.554 20.2555C4.664 20.3215 4.752 20.4081 4.862 20.4961C6.67984 21.7286 8.82573 22.3872 11.022 22.3867C13.2183 22.3872 15.3642 21.7286 17.182 20.4961C17.292 20.4301 17.38 20.3435 17.49 20.2761C17.688 20.1235 17.908 19.9695 18.106 19.8155C18.128 19.7935 18.15 19.7935 18.15 19.7715C20.482 17.7268 22 14.717 22 11.3757ZM11 21.0021C8.932 21.0021 7.04 20.3421 5.478 19.2435C5.5 19.0675 5.544 18.8928 5.588 18.7168C5.71909 18.2399 5.91135 17.7819 6.16 17.3542C6.402 16.9362 6.688 16.5622 7.04 16.2322C7.37 15.9022 7.766 15.5956 8.162 15.3536C8.58 15.1116 9.02 14.9356 9.504 14.8036C9.99177 14.6721 10.4948 14.606 11 14.607C12.4996 14.5963 13.9442 15.1716 15.026 16.2102C15.532 16.7162 15.928 17.3102 16.214 17.9908C16.368 18.3868 16.478 18.8048 16.544 19.2435C14.9204 20.3849 12.9847 20.9989 11 21.0021ZM7.634 10.8271C7.44015 10.3833 7.34268 9.90337 7.348 9.41909C7.348 8.93647 7.436 8.45247 7.634 8.01247C7.832 7.57247 8.096 7.17784 8.426 6.84784C8.756 6.51784 9.152 6.25522 9.592 6.05722C10.032 5.85922 10.516 5.77122 11 5.77122C11.506 5.77122 11.968 5.85922 12.408 6.05722C12.848 6.25522 13.244 6.51922 13.574 6.84784C13.904 7.17784 14.168 7.57384 14.366 8.01247C14.564 8.45247 14.652 8.93647 14.652 9.41909C14.652 9.92509 14.564 10.3871 14.366 10.8257C14.1749 11.2592 13.9065 11.6543 13.574 11.9917C13.2365 12.3238 12.8414 12.5917 12.408 12.7823C11.4989 13.1559 10.4791 13.1559 9.57 12.7823C9.13662 12.5917 8.74152 12.3238 8.404 11.9917C8.071 11.6592 7.80903 11.2625 7.634 10.8257V10.8271ZM17.842 18.1228C17.842 18.0788 17.82 18.0568 17.82 18.0128C17.6036 17.3245 17.2847 16.6728 16.874 16.0796C16.4629 15.482 15.9577 14.955 15.378 14.519C14.9353 14.1859 14.4554 13.9054 13.948 13.683C14.1788 13.5307 14.3927 13.3541 14.586 13.1563C14.914 12.8325 15.202 12.4706 15.444 12.0783C15.9312 11.2778 16.1829 10.3561 16.17 9.41909C16.1768 8.72543 16.0421 8.03766 15.774 7.39784C15.5093 6.78135 15.1284 6.22161 14.652 5.74922C14.1763 5.28176 13.6165 4.90853 13.002 4.64922C12.3611 4.38163 11.6725 4.24737 10.978 4.25459C10.2834 4.2478 9.59478 4.38254 8.954 4.65059C8.33422 4.90935 7.77303 5.2905 7.304 5.77122C6.83656 6.2464 6.46332 6.8058 6.204 7.41984C5.93594 8.05966 5.8012 8.74743 5.808 9.44109C5.808 9.92509 5.874 10.3871 6.006 10.8257C6.138 11.2877 6.314 11.7057 6.556 12.1003C6.776 12.4963 7.084 12.8483 7.414 13.1783C7.612 13.3763 7.832 13.551 8.074 13.705C7.56502 13.9333 7.08499 14.2213 6.644 14.563C6.072 15.003 5.566 15.5296 5.148 16.1016C4.73311 16.6923 4.41386 17.3447 4.202 18.0348C4.18 18.0788 4.18 18.1228 4.18 18.1448C2.442 16.3862 1.364 14.013 1.364 11.3757C1.364 6.07922 5.698 1.74934 11 1.74934C16.302 1.74934 20.636 6.07922 20.636 11.3757C20.6331 13.9057 19.6286 16.3315 17.842 18.1228Z" fill="#A5A5A5"/>
</svg>
