<svg width="21" height="21" viewBox="0 0 21 21" fill="none" xmlns="http://www.w3.org/2000/svg">
<path d="M1.12543 11.5417H2.1671V18.8333C2.1671 19.9823 3.10147 20.9167 4.25043 20.9167H16.7504C17.8994 20.9167 18.8338 19.9823 18.8338 18.8333V11.5417H19.8754C20.0814 11.5416 20.2828 11.4805 20.454 11.366C20.6253 11.2516 20.7588 11.0889 20.8376 10.8986C20.9164 10.7083 20.937 10.4989 20.8969 10.2968C20.8567 10.0948 20.7575 9.90923 20.6119 9.76355L11.2369 0.388548C11.1402 0.291729 11.0254 0.214919 10.8991 0.162512C10.7727 0.110105 10.6372 0.0831299 10.5004 0.0831299C10.3636 0.0831299 10.2282 0.110105 10.1018 0.162512C9.97542 0.214919 9.86063 0.291729 9.76397 0.388548L0.388971 9.76355C0.243336 9.90923 0.144163 10.0948 0.103988 10.2968C0.0638135 10.4989 0.0844416 10.7083 0.163265 10.8986C0.242088 11.0889 0.375566 11.2516 0.546826 11.366C0.718087 11.4805 0.919439 11.5416 1.12543 11.5417ZM8.4171 18.8333V13.625H12.5838V18.8333H8.4171ZM10.5004 2.59792L16.7504 8.84792V13.625L16.7515 18.8333H14.6671V13.625C14.6671 12.476 13.7327 11.5417 12.5838 11.5417H8.4171C7.26814 11.5417 6.33376 12.476 6.33376 13.625V18.8333H4.25043V8.84792L10.5004 2.59792Z" fill="#A5A5A5"/>
</svg>
