<svg width="32" height="32" viewBox="0 0 32 32" fill="none" xmlns="http://www.w3.org/2000/svg">
<path d="M24.118 24.8399C22.4019 26.4164 20.2639 27.459 17.965 27.8406C15.6662 28.2222 13.306 27.9262 11.1726 26.9888C9.03918 26.0513 7.22486 24.513 5.95116 22.5616C4.67746 20.6102 3.99948 18.3302 4 15.9999H6C5.99986 18.0141 6.60796 19.9814 7.74468 21.6442C8.88141 23.307 10.4938 24.5877 12.3706 25.3188C14.2475 26.0498 16.3013 26.197 18.2633 25.7411C20.2252 25.2853 22.0037 24.2476 23.366 22.7639H20.46C20.1948 22.7639 19.9404 22.6586 19.7529 22.471C19.5654 22.2835 19.46 22.0291 19.46 21.7639C19.46 21.4987 19.5654 21.2443 19.7529 21.0568C19.9404 20.8693 20.1948 20.7639 20.46 20.7639H25.118C25.3832 20.7639 25.6376 20.8693 25.8251 21.0568C26.0126 21.2443 26.118 21.4987 26.118 21.7639V26.4179C26.118 26.6831 26.0126 26.9375 25.8251 27.125C25.6376 27.3126 25.3832 27.4179 25.118 27.4179C24.8528 27.4179 24.5984 27.3126 24.4109 27.125C24.2234 26.9375 24.118 26.6831 24.118 26.4179V24.8379V24.8399ZM8.634 9.23791H11.54C11.8052 9.23791 12.0596 9.34327 12.2471 9.53081C12.4346 9.71834 12.54 9.9727 12.54 10.2379C12.54 10.5031 12.4346 10.7575 12.2471 10.945C12.0596 11.1326 11.8052 11.2379 11.54 11.2379H6.88C6.61478 11.2379 6.36043 11.1326 6.17289 10.945C5.98536 10.7575 5.88 10.5031 5.88 10.2379V5.57991C5.88 5.3147 5.98536 5.06034 6.17289 4.87281C6.36043 4.68527 6.61478 4.57991 6.88 4.57991C7.14522 4.57991 7.39957 4.68527 7.58711 4.87281C7.77464 5.06034 7.88 5.3147 7.88 5.57991V7.15991C9.59591 5.58152 11.7345 4.53716 14.0343 4.15447C16.3341 3.77178 18.6956 4.06732 20.8302 5.005C22.9648 5.94267 24.78 7.48185 26.054 9.43444C27.328 11.387 28.0056 13.6685 28.004 15.9999H26.004C26.0042 13.9854 25.3959 12.0179 24.259 10.355C23.122 8.69203 21.5093 7.41125 19.6321 6.68038C17.7549 5.94952 15.7007 5.80264 13.7386 6.259C11.7765 6.71535 9.998 7.75366 8.636 9.23791H8.634Z" fill="black"/>
</svg>
