<svg width="17" height="18" viewBox="0 0 17 18" fill="none" xmlns="http://www.w3.org/2000/svg">
<path d="M7.2514 10.6147V17.1467H0C0 15.4143 0.763985 13.7529 2.12389 12.5279C3.48379 11.3029 5.32821 10.6147 7.2514 10.6147V10.6147ZM12.69 16.7385L10.026 18L10.5345 15.3284L8.3799 13.4357L11.3584 13.0454L12.69 10.6147L14.0224 13.0454L17 13.4357L14.8454 15.3284L15.353 18L12.69 16.7385ZM7.2514 9.79814C4.2466 9.79814 1.81285 7.60581 1.81285 4.89907C1.81285 2.19233 4.2466 0 7.2514 0C10.2562 0 12.69 2.19233 12.69 4.89907C12.69 7.60581 10.2562 9.79814 7.2514 9.79814Z" fill="url(#paint0_linear_64:366)"/>
<defs>
<linearGradient id="paint0_linear_64:366" x1="8.5" y1="0" x2="8.5" y2="18" gradientUnits="userSpaceOnUse">
<stop stop-color="#FF9A46"/>
<stop offset="0.489583" stop-color="#FF67C1"/>
<stop offset="0.973958" stop-color="#9D5FE9"/>
</linearGradient>
</defs>
</svg>
