<svg width="30" height="27" viewBox="0 0 30 27" fill="none" xmlns="http://www.w3.org/2000/svg">
<path d="M17.6667 22.3333C22.6947 22.3333 25.2094 22.3333 26.7707 20.7707C28.3334 19.2093 28.3334 16.6947 28.3334 11.6667C28.3334 6.63867 28.3334 4.124 26.7707 2.56267C25.2094 1 22.6947 1 17.6667 1H12.3334C7.30535 1 4.79069 1 3.22935 2.56267C1.66669 4.124 1.66669 6.63867 1.66669 11.6667C1.66669 16.6947 1.66669 19.2093 3.22935 20.7707C4.10002 21.6427 5.26669 22.028 7.00002 22.1973" stroke="black" stroke-width="2" stroke-linecap="round" stroke-linejoin="round"/>
<path d="M17.6667 22.3335C16.0187 22.3335 14.2027 23.0002 12.5453 23.8602C9.88135 25.2428 8.54935 25.9348 7.89335 25.4935C7.23735 25.0535 7.36135 23.6868 7.61068 20.9548L7.66668 20.3335" stroke="black" stroke-width="2" stroke-linecap="round"/>
</svg>
