<svg width="17" height="20" viewBox="0 0 17 20" fill="none" xmlns="http://www.w3.org/2000/svg">
<path d="M6.542 6.60812L7.642 4.37812C7.69799 4.26467 7.7846 4.16914 7.89205 4.10235C7.99949 4.03555 8.12348 4.00016 8.25 4.00016C8.37652 4.00016 8.50051 4.03555 8.60795 4.10235C8.7154 4.16914 8.80201 4.26467 8.858 4.37812L9.958 6.60812L12.419 6.96512C12.975 7.04512 13.197 7.72912 12.795 8.12212L11.015 9.85712L11.435 12.3071C11.4567 12.4319 11.443 12.5603 11.3954 12.6778C11.3479 12.7952 11.2684 12.897 11.1659 12.9715C11.0635 13.046 10.9422 13.0904 10.8158 13.0995C10.6895 13.1086 10.5631 13.0822 10.451 13.0231L8.25 11.8661L6.05 13.0231C5.93796 13.0824 5.81156 13.109 5.68514 13.1001C5.55872 13.0911 5.43735 13.0469 5.33478 12.9724C5.23222 12.898 5.15258 12.7963 5.10489 12.6789C5.0572 12.5614 5.04338 12.433 5.065 12.3081L5.485 9.85812L3.705 8.12212C3.61424 8.03382 3.55003 7.92187 3.51963 7.79895C3.48923 7.67603 3.49386 7.54705 3.533 7.42663C3.57213 7.3062 3.64421 7.19915 3.74106 7.11758C3.83791 7.03601 3.95567 6.9832 4.081 6.96512L6.541 6.60812H6.542ZM7.6 7.52812C7.55129 7.62647 7.47942 7.71152 7.39059 7.77596C7.30176 7.84041 7.19861 7.88233 7.09 7.89812L5.636 8.11012L6.688 9.13512C6.76656 9.21194 6.82533 9.30665 6.85929 9.41114C6.89325 9.51563 6.90139 9.6268 6.883 9.73512L6.634 11.1831L7.934 10.4991C8.03142 10.4478 8.13988 10.421 8.25 10.421C8.36012 10.421 8.46858 10.4478 8.566 10.4991L9.866 11.1831L9.617 9.73512C9.59844 9.6268 9.60649 9.51558 9.64046 9.41106C9.67443 9.30654 9.7333 9.21184 9.812 9.13512L10.864 8.11012L9.411 7.89812C9.30239 7.88233 9.19924 7.84041 9.11041 7.77596C9.02157 7.71152 8.94971 7.62647 8.901 7.52812L8.25 6.21012L7.6 7.52712V7.52812ZM2.5 0.00012207C1.83696 0.00012207 1.20107 0.263514 0.732233 0.732355C0.263392 1.2012 0 1.83708 0 2.50012V17.5001C0 18.1632 0.263392 18.799 0.732233 19.2679C1.20107 19.7367 1.83696 20.0001 2.5 20.0001H15.75C15.9489 20.0001 16.1397 19.9211 16.2803 19.7805C16.421 19.6398 16.5 19.449 16.5 19.2501C16.5 19.0512 16.421 18.8604 16.2803 18.7198C16.1397 18.5791 15.9489 18.5001 15.75 18.5001H2.5C2.23478 18.5001 1.98043 18.3948 1.79289 18.2072C1.60536 18.0197 1.5 17.7653 1.5 17.5001H15.75C15.9489 17.5001 16.1397 17.4211 16.2803 17.2805C16.421 17.1398 16.5 16.949 16.5 16.7501V2.50012C16.5 2.17182 16.4353 1.84673 16.3097 1.54341C16.1841 1.2401 15.9999 0.964502 15.7678 0.732355C15.5356 0.500209 15.26 0.31606 14.9567 0.190423C14.6534 0.0647865 14.3283 0.00012207 14 0.00012207H2.5ZM15 16.0001H1.5V2.50012C1.5 2.23491 1.60536 1.98055 1.79289 1.79302C1.98043 1.60548 2.23478 1.50012 2.5 1.50012H14C14.2652 1.50012 14.5196 1.60548 14.7071 1.79302C14.8946 1.98055 15 2.23491 15 2.50012V16.0001Z" fill="white"/>
</svg>
