<svg width="27" height="24" viewBox="0 0 27 24" fill="none" xmlns="http://www.w3.org/2000/svg">
<path d="M5.99597 1.33347H10.6146C10.868 1.33355 11.1119 1.42979 11.297 1.60276C11.4822 1.77574 11.5947 2.01253 11.612 2.26531C11.6293 2.51808 11.55 2.76799 11.3901 2.96453C11.2302 3.16108 11.0016 3.2896 10.7506 3.32413L10.6146 3.33347H5.99597C5.23602 3.33335 4.50434 3.62165 3.94873 4.14014C3.39312 4.65863 3.05499 5.36865 3.00264 6.1268L2.99597 6.33347V19.0001C2.99622 19.7601 3.28485 20.4916 3.80359 21.047C4.32232 21.6023 5.03248 21.9401 5.79064 21.9921L5.99597 22.0001H18.6626C19.4228 22.0002 20.1547 21.7117 20.7103 21.193C21.266 20.6742 21.6039 19.9639 21.656 19.2055L21.6626 19.0001V18.3361C21.66 18.081 21.7551 17.8345 21.9283 17.6471C22.1016 17.4597 22.3399 17.3457 22.5945 17.3283C22.8491 17.3109 23.1007 17.3915 23.2978 17.5536C23.4949 17.7157 23.6225 17.947 23.6546 18.2001L23.6626 18.3361V19.0001C23.6624 20.2799 23.1715 21.5109 22.2909 22.4395C21.4104 23.3682 20.2073 23.9239 18.9293 23.9921L18.6626 24.0001H5.99597C4.71576 24.0002 3.48428 23.5093 2.55528 22.6284C1.62629 21.7475 1.07058 20.5439 1.00264 19.2655L0.995972 18.9988V6.33213C0.996198 5.05237 1.48713 3.82141 2.36769 2.89274C3.24824 1.96406 4.45136 1.40839 5.72931 1.34013L5.99597 1.33347H10.6146H5.99597ZM16.3333 4.69347V1.00013C16.3332 0.816195 16.3838 0.635788 16.4796 0.478758C16.5754 0.321728 16.7126 0.194159 16.8762 0.110085C17.0398 0.0260105 17.2234 -0.0113118 17.4069 0.00222305C17.5903 0.0157579 17.7665 0.0796258 17.916 0.186801L18.0253 0.277467L26.0173 7.94413C26.3906 8.3028 26.4253 8.87747 26.12 9.2748L26.0173 9.38813L18.0253 17.0575C17.8926 17.1849 17.7273 17.2733 17.5476 17.3129C17.3678 17.3524 17.1807 17.3416 17.0067 17.2816C16.8328 17.2217 16.6787 17.1149 16.5615 16.973C16.4444 16.8311 16.3686 16.6596 16.3426 16.4775L16.3333 16.3348V12.7015L15.8746 12.7415C12.6746 13.0748 9.60797 14.5161 6.65597 17.0881C5.96264 17.6921 4.89197 17.1215 5.00664 16.2108C5.89197 9.11747 9.60131 5.20947 15.9333 4.7188L16.3333 4.69213V1.00013V4.69347ZM18.3333 3.3428V5.6668C18.3333 5.93202 18.2279 6.18637 18.0404 6.37391C17.8529 6.56144 17.5985 6.6668 17.3333 6.6668C12.168 6.6668 8.96797 8.90147 7.58397 13.5428L7.47864 13.9135L7.94797 13.5975C10.9333 11.6495 14.064 10.6668 17.3346 10.6668C17.5765 10.6669 17.8101 10.7546 17.9923 10.9137C18.1744 11.0728 18.2927 11.2925 18.3253 11.5321L18.3346 11.6668V13.9908L23.88 8.6668L18.3333 3.34413V3.3428Z" fill="black"/>
</svg>
