<svg width="40" height="40" viewBox="0 0 40 40" fill="none" xmlns="http://www.w3.org/2000/svg">
<path fill-rule="evenodd" clip-rule="evenodd" d="M15.5 25.25C15.5 25.0511 15.579 24.8603 15.7197 24.7197C15.8603 24.579 16.0511 24.5 16.25 24.5H29.75C29.9489 24.5 30.1397 24.579 30.2803 24.7197C30.421 24.8603 30.5 25.0511 30.5 25.25C30.5 25.4489 30.421 25.6397 30.2803 25.7803C30.1397 25.921 29.9489 26 29.75 26H16.25C16.0511 26 15.8603 25.921 15.7197 25.7803C15.579 25.6397 15.5 25.4489 15.5 25.25ZM15.5 19.25C15.5 19.0511 15.579 18.8603 15.7197 18.7197C15.8603 18.579 16.0511 18.5 16.25 18.5H29.75C29.9489 18.5 30.1397 18.579 30.2803 18.7197C30.421 18.8603 30.5 19.0511 30.5 19.25C30.5 19.4489 30.421 19.6397 30.2803 19.7803C30.1397 19.921 29.9489 20 29.75 20H16.25C16.0511 20 15.8603 19.921 15.7197 19.7803C15.579 19.6397 15.5 19.4489 15.5 19.25ZM15.5 13.25C15.5 13.0511 15.579 12.8603 15.7197 12.7197C15.8603 12.579 16.0511 12.5 16.25 12.5H29.75C29.9489 12.5 30.1397 12.579 30.2803 12.7197C30.421 12.8603 30.5 13.0511 30.5 13.25C30.5 13.4489 30.421 13.6397 30.2803 13.7803C30.1397 13.921 29.9489 14 29.75 14H16.25C16.0511 14 15.8603 13.921 15.7197 13.7803C15.579 13.6397 15.5 13.4489 15.5 13.25ZM11 14.75C11.3978 14.75 11.7794 14.592 12.0607 14.3107C12.342 14.0294 12.5 13.6478 12.5 13.25C12.5 12.8522 12.342 12.4706 12.0607 12.1893C11.7794 11.908 11.3978 11.75 11 11.75C10.6022 11.75 10.2206 11.908 9.93934 12.1893C9.65804 12.4706 9.5 12.8522 9.5 13.25C9.5 13.6478 9.65804 14.0294 9.93934 14.3107C10.2206 14.592 10.6022 14.75 11 14.75ZM11 20.75C11.3978 20.75 11.7794 20.592 12.0607 20.3107C12.342 20.0294 12.5 19.6478 12.5 19.25C12.5 18.8522 12.342 18.4706 12.0607 18.1893C11.7794 17.908 11.3978 17.75 11 17.75C10.6022 17.75 10.2206 17.908 9.93934 18.1893C9.65804 18.4706 9.5 18.8522 9.5 19.25C9.5 19.6478 9.65804 20.0294 9.93934 20.3107C10.2206 20.592 10.6022 20.75 11 20.75ZM11 26.75C11.3978 26.75 11.7794 26.592 12.0607 26.3107C12.342 26.0294 12.5 25.6478 12.5 25.25C12.5 24.8522 12.342 24.4706 12.0607 24.1893C11.7794 23.908 11.3978 23.75 11 23.75C10.6022 23.75 10.2206 23.908 9.93934 24.1893C9.65804 24.4706 9.5 24.8522 9.5 25.25C9.5 25.6478 9.65804 26.0294 9.93934 26.3107C10.2206 26.592 10.6022 26.75 11 26.75Z" fill="#9D5FE9"/>
<rect x="0.5" y="0.5" width="39" height="39" rx="4.5" stroke="#9D5FE9"/>
</svg>
