<svg width="15" height="12" viewBox="0 0 15 12" fill="none" xmlns="http://www.w3.org/2000/svg">
<path d="M14.7789 1.5822C14.2699 1.80775 13.723 1.96016 13.1482 2.02904C13.7413 1.67412 14.1851 1.11552 14.3967 0.45746C13.8394 0.788473 13.2295 1.02147 12.5934 1.14632C12.1657 0.68964 11.5992 0.386943 10.9818 0.285228C10.3644 0.183513 9.73074 0.28847 9.17913 0.583804C8.62751 0.879138 8.18884 1.34833 7.9312 1.91852C7.67356 2.48872 7.61138 3.12802 7.75432 3.73718C6.62512 3.68048 5.52047 3.38699 4.51204 2.87574C3.50362 2.36449 2.61396 1.64691 1.90081 0.769582C1.65696 1.19021 1.51675 1.67791 1.51675 2.1973C1.51648 2.66487 1.63163 3.12527 1.85197 3.53767C2.07231 3.95007 2.39104 4.3017 2.77987 4.56138C2.32893 4.54703 1.88793 4.42518 1.49359 4.20597V4.24255C1.49354 4.89833 1.72038 5.53394 2.13562 6.04151C2.55086 6.54909 3.12892 6.89737 3.77171 7.02726C3.35339 7.14048 2.9148 7.15715 2.48909 7.07603C2.67045 7.6403 3.02372 8.13373 3.49944 8.48724C3.97517 8.84076 4.54953 9.03666 5.14212 9.04752C4.13616 9.83722 2.8938 10.2656 1.6149 10.2637C1.38836 10.2638 1.16201 10.2505 0.937012 10.2241C2.23517 11.0587 3.74632 11.5017 5.28965 11.5C10.514 11.5 13.3701 7.17296 13.3701 3.42018C13.3701 3.29826 13.367 3.17512 13.3615 3.05319C13.9171 2.65144 14.3966 2.15395 14.7777 1.58402L14.7789 1.5822Z" fill="#808191"/>
</svg>
